HIERARCHY
ROOT Hips
{
	OFFSET 0.00000 0.00000 0.00000
	CHANNELS 6 Xposition Yposition Zposition Zrotation Yrotation Xrotation 
	JOINT LHipJoint
	{
		OFFSET 0 0 0
		CHANNELS 3 Zrotation Yrotation Xrotation
		JOINT LeftUpLeg
		{
			OFFSET 1.62964 -1.40469 0.78906
			CHANNELS 3 Zrotation Yrotation Xrotation
			JOINT LeftLeg
			{
				OFFSET 2.29640 -6.30932 0.00000
				CHANNELS 3 Zrotation Yrotation Xrotation
				JOINT LeftFoot
				{
					OFFSET 2.29451 -6.30412 0.00000
					CHANNELS 3 Zrotation Yrotation Xrotation
					JOINT LeftToeBase
					{
						OFFSET 0.03611 -0.09921 1.56387
						CHANNELS 3 Zrotation Yrotation Xrotation
						End Site
						{
							OFFSET 0.00000 -0.00000 0.80291
						}
					}
				}
			}
		}
	}
	JOINT RHipJoint
	{
		OFFSET 0 0 0
		CHANNELS 3 Zrotation Yrotation Xrotation
		JOINT RightUpLeg
		{
			OFFSET -1.73712 -1.40469 0.78906
			CHANNELS 3 Zrotation Yrotation Xrotation
			JOINT RightLeg
			{
				OFFSET -2.28137 -6.26801 0.00000
				CHANNELS 3 Zrotation Yrotation Xrotation
				JOINT RightFoot
				{
					OFFSET -2.28681 -6.28298 0.00000
					CHANNELS 3 Zrotation Yrotation Xrotation
					JOINT RightToeBase
					{
						OFFSET -0.15927 -0.43759 1.61103
						CHANNELS 3 Zrotation Yrotation Xrotation
						End Site
						{
							OFFSET -0.00000 -0.00000 0.84630
						}
					}
				}
			}
		}
	}
	JOINT LowerBack
	{
		OFFSET 0 0 0
		CHANNELS 3 Zrotation Yrotation Xrotation
		JOINT Spine
		{
			OFFSET -0.04227 2.04338 -0.00225
			CHANNELS 3 Zrotation Yrotation Xrotation
			JOINT Spine1
			{
				OFFSET -0.02148 2.04482 -0.04273
				CHANNELS 3 Zrotation Yrotation Xrotation
				JOINT Neck
				{
					OFFSET 0 0 0
					CHANNELS 3 Zrotation Yrotation Xrotation
					JOINT Neck1
					{
						OFFSET 0.09180 1.44629 0.19359
						CHANNELS 3 Zrotation Yrotation Xrotation
						JOINT Head
						{
							OFFSET 0.00887 1.40645 0.14750
							CHANNELS 3 Zrotation Yrotation Xrotation
							End Site
							{
								OFFSET -0.00669 1.50671 0.03707
							}
						}
					}
				}
				JOINT LeftShoulder
				{
					OFFSET 0 0 0
					CHANNELS 3 Zrotation Yrotation Xrotation
					JOINT LeftArm
					{
						OFFSET 2.17674 1.86763 -0.06520
						CHANNELS 3 Zrotation Yrotation Xrotation
						JOINT LeftForeArm
						{
							OFFSET 4.65776 -0.00000 0.00000
							CHANNELS 3 Zrotation Yrotation Xrotation
							JOINT LeftHand
							{
								OFFSET 3.55539 -0.00000 0.00000
								CHANNELS 3 Zrotation Yrotation Xrotation
								JOINT LeftFingerBase
								{
									OFFSET 0 0 0
									CHANNELS 3 Zrotation Yrotation Xrotation
									JOINT LeftHandIndex1
									{
										OFFSET 0.70726 -0.00000 0.00000
										CHANNELS 3 Zrotation Yrotation Xrotation
										End Site
										{
											OFFSET 0.57022 -0.00000 0.00000
										}
									}
								}
								JOINT LThumb
								{
									OFFSET 0 0 0
									CHANNELS 3 Zrotation Yrotation Xrotation
									End Site
									{
										OFFSET 0.57892 -0.00000 0.57892
									}
								}
							}
						}
					}
				}
				JOINT RightShoulder
				{
					OFFSET 0 0 0
					CHANNELS 3 Zrotation Yrotation Xrotation
					JOINT RightArm
					{
						OFFSET -2.80694 1.55459 -0.32496
						CHANNELS 3 Zrotation Yrotation Xrotation
						JOINT RightForeArm
						{
							OFFSET -4.71925 -0.00000 -0.00000
							CHANNELS 3 Zrotation Yrotation Xrotation
							JOINT RightHand
							{
								OFFSET -3.56990 -0.00000 0.00000
								CHANNELS 3 Zrotation Yrotation Xrotation
								JOINT RightFingerBase
								{
									OFFSET 0 0 0
									CHANNELS 3 Zrotation Yrotation Xrotation
									JOINT RightHandIndex1
									{
										OFFSET -0.50776 -0.00000 0.00000
										CHANNELS 3 Zrotation Yrotation Xrotation
										End Site
										{
											OFFSET -0.40937 -0.00000 0.00000
										}
									}
								}
								JOINT RThumb
								{
									OFFSET 0 0 0
									CHANNELS 3 Zrotation Yrotation Xrotation
									End Site
									{
										OFFSET -0.41562 -0.00000 0.41562
									}
								}
							}
						}
					}
				}
			}
		}
	}
}
MOTION
Frames: 12
Frame Time: .0083333
16.0992 16.3417 21.1386 0 0 0 0 0 0 -21 0 0 0 0 0 0 0 0 0 0 0 0 0 0 21 0 0 0 0 0 0 0 0 0 0 0 0 0 0 0 0 0 0 0 0 0 0 -16 0 0 21 0 0 11 0 0 0 -8 0 0 0 0 0 0 0 0 0 0 0 0 0 0 0 0 0 0 0 0 8 0 0 0 0 0 0 0 0 0 0 0 0 0 0 0 0 0
16.0992 16.3417 21.1386 177.9820 -0.1201 -154.9490 0.0000 0.0000 0.0000 -20.8898 -15.4514 -19.2942 0.2194 3.0152 8.3210 0.0801 -5.0196 -5.7325 2.8674 -10.4772 -30.5364 0.0000 0.0000 0.0000 17.5506 14.8152 -18.9523 -0.2248 -3.0521 8.4237 -1.0994 3.5465 -18.9538 -1.1067 6.6839 -18.7823 -7.5259 -2.1538 -29.9434 -0.1655 -0.9227 -1.1992 3.4667 -1.1840 14.4872 -0.5849 -1.4737 -5.8737 3.6807 -2.0952 4.6850 1.1997 -0.9147 2.5606 0.0000 -0.0000 0.0000 -85.4994 0.5574 19.1399 11.0047 -18.2955 -1.7774 -0.0000 -0.0000 4.1614 21.8981 -11.6306 -4.6328 -7.1250 0.0000 -0.0000 -3.6774 17.4880 2.4073 0.0000 -0.0000 0.0000 92.6734 -4.4708 6.4670 -16.0442 25.5805 -3.6650 0.0000 -0.0000 -1.9934 -13.0970 -56.8095 11.0174 7.1250 -0.0000 -0.0000 82.2313 -76.7385 -68.5238
16.0957 16.3424 21.1385 177.9330 -0.1631 -154.9620 0.0000 0.0000 0.0000 -20.9789 -15.4686 -19.2686 0.2159 2.9911 8.2539 0.0793 -5.0550 -5.7255 2.8898 -10.5145 -30.6595 0.0000 0.0000 0.0000 17.5149 14.6656 -18.9456 -0.2226 -3.0370 8.3817 -1.1036 3.6284 -18.9789 -1.1303 6.7526 -18.9843 -7.5092 -2.1695 -29.9224 -0.1913 -0.9457 -1.1931 3.4208 -1.1920 14.4868 -0.5059 -1.4677 -6.0020 3.6356 -2.0959 4.8438 1.1715 -0.9115 2.6358 0.0000 -0.0000 0.0000 -85.4878 0.5866 19.0787 10.9886 -18.2707 -1.7723 -0.0000 -0.0000 4.1278 22.0398 -11.4249 -4.5848 -7.1250 0.0000 -0.0000 -3.5707 17.6950 2.3210 0.0000 -0.0000 0.0000 92.6633 -4.5324 6.6359 -16.0937 25.6475 -3.6864 0.0000 -0.0000 -2.1573 -13.3811 -57.0483 11.2888 7.1250 -0.0000 -0.0000 83.2862 -76.8405 -69.6854
16.1006 16.3430 21.1359 177.9300 -0.1753 -155.0200 0.0000 0.0000 0.0000 -20.9652 -15.3913 -19.2085 0.2097 2.9483 8.1350 0.0750 -5.0353 -5.6164 2.9574 -10.6258 -31.0279 0.0000 0.0000 0.0000 17.5375 14.6463 -18.8541 -0.2203 -3.0216 8.3388 -1.1040 3.6075 -18.9857 -1.0724 6.5830 -18.4856 -7.5703 -2.1935 -29.8897 -0.1582 -0.9574 -1.1718 3.4863 -1.2009 14.4994 -0.4199 -1.5076 -6.0875 3.4488 -2.1517 4.9508 1.0935 -0.9429 2.6842 0.0000 0.0000 0.0000 -85.5191 0.6227 19.0972 10.9612 -18.2288 -1.7638 -0.0000 -0.0000 4.1195 22.2971 -11.2979 -4.5931 -7.1250 0.0000 -0.0000 -3.3857 17.8080 2.1919 0.0000 0.0000 0.0000 92.6130 -4.4919 6.6253 -16.0621 25.6047 -3.6727 0.0000 -0.0000 -2.1712 -13.6230 -57.1838 11.5122 7.1250 -0.0000 -0.0000 83.9042 -76.9246 -70.3949
16.1061 16.3432 21.1338 177.8930 -0.1563 -155.0450 0.0000 0.0000 0.0000 -20.9816 -15.3344 -19.1716 0.2077 2.9347 8.0969 0.0702 -5.0032 -5.4860 2.8317 -10.4176 -30.3398 0.0000 0.0000 0.0000 17.4903 14.7937 -18.7703 -0.2201 -3.0199 8.3341 -1.1106 3.4644 -19.0668 -1.0204 6.4262 -18.0261 -7.6787 -2.2168 -29.8882 -0.1316 -0.9537 -1.1663 3.5753 -1.2070 14.5054 -0.3577 -1.5789 -6.1243 3.2914 -2.2486 5.0779 1.0275 -0.9942 2.7320 -0.0000 -0.0000 0.0000 -85.5526 0.6457 19.0541 10.8930 -18.1241 -1.7425 -0.0000 -0.0000 4.2195 22.4938 -11.5951 -4.7577 -7.1250 0.0000 -0.0000 -3.2593 17.4713 2.1339 -0.0000 -0.0000 0.0000 92.5704 -4.4511 6.5217 -16.0140 25.5396 -3.6520 0.0000 -0.0000 -2.1989 -13.8465 -57.2969 11.7177 7.1250 -0.0000 -0.0000 84.4322 -77.0008 -71.0070
16.1014 16.3430 21.1344 177.9100 -0.2160 -155.0720 0.0000 0.0000 0.0000 -21.0066 -15.3511 -19.1400 0.2099 2.9495 8.1382 0.0696 -5.0529 -5.4937 2.7998 -10.3636 -30.1625 0.0000 0.0000 0.0000 17.5306 14.6923 -18.7444 -0.2196 -3.0167 8.3253 -1.1081 3.5292 -19.0337 -1.0299 6.4553 -18.1115 -7.5582 -2.1814 -29.8442 -0.1470 -0.9485 -1.1720 3.4970 -1.1947 14.4780 -0.4045 -1.6191 -6.0994 3.3685 -2.3014 5.0510 1.0586 -1.0188 2.7217 -0.0000 -0.0000 0.0000 -85.5477 0.6332 19.0030 10.8181 -18.0089 -1.7193 -0.0000 -0.0000 4.2833 22.5800 -11.8749 -4.8910 -7.1250 0.0000 -0.0000 -3.2106 17.1631 2.1236 -0.0000 -0.0000 0.0000 92.5616 -4.4281 6.4633 -15.9729 25.4839 -3.6343 0.0000 -0.0000 -2.3556 -14.0751 -57.4565 11.9340 7.1250 -0.0000 -0.0000 85.1737 -77.0749 -71.8320
16.1042 16.3437 21.1281 177.9030 -0.1731 -155.1530 0.0000 0.0000 0.0000 -21.0134 -15.3526 -19.0072 0.2122 2.9655 8.1829 0.0761 -5.0451 -5.6463 2.8403 -10.4318 -30.3868 0.0000 0.0000 0.0000 17.5286 14.7123 -18.6117 -0.2179 -3.0049 8.2925 -1.0973 3.5125 -18.9398 -1.0193 6.4231 -18.0171 -7.5767 -2.1477 -29.8477 -0.1647 -0.8876 -1.1329 3.5123 -1.1682 14.5181 -0.4684 -1.6291 -6.0773 3.4695 -2.3118 4.9522 1.1019 -1.0229 2.6875 -0.0000 0.0000 0.0000 -85.5375 0.6019 18.9477 10.7734 -17.9401 -1.7055 -0.0000 -0.0000 4.3692 22.4641 -11.7032 -4.7942 -7.1250 0.0000 -0.0000 -3.2844 17.3582 2.1585 -0.0000 0.0000 0.0000 92.5976 -4.3343 6.3350 -15.9084 25.3964 -3.6066 0.0000 -0.0000 -2.3333 -14.3394 -57.6823 12.1903 7.1250 -0.0000 -0.0000 86.2271 -77.1537 -72.9791
16.1076 16.3431 21.1226 177.8950 -0.1794 -155.2200 0.0000 0.0000 0.0000 -21.0078 -15.3393 -18.8903 0.2136 2.9756 8.2108 0.0775 -5.1153 -5.7081 2.8519 -10.4514 -30.4512 0.0000 0.0000 0.0000 17.5537 14.7033 -18.4864 -0.2150 -2.9853 8.2379 -1.0924 3.4931 -18.8989 -0.9861 6.3205 -17.7172 -7.6213 -2.1433 -29.8397 -0.1529 -0.8625 -1.1052 3.5598 -1.1598 14.5444 -0.6080 -1.5849 -5.9736 3.6451 -2.2446 4.7871 1.1862 -0.9888 2.6168 -0.0000 0.0000 0.0000 -85.5727 0.5985 18.8561 10.7487 -17.9020 -1.6979 -0.0000 -0.0000 4.4814 22.3599 -11.4073 -4.6512 -7.1250 0.0000 -0.0000 -3.3457 17.6850 2.1750 -0.0000 0.0000 0.0000 92.5837 -4.3132 6.2529 -15.8899 25.3711 -3.5986 0.0000 -0.0000 -2.4022 -14.6087 -57.8601 12.4457 7.1250 -0.0000 -0.0000 87.0832 -77.2330 -73.9312
16.1031 16.3426 21.1231 177.8230 -0.2563 -155.2030 0.0000 0.0000 0.0000 -21.1318 -15.3926 -18.8788 0.2111 2.9579 8.1614 0.0732 -5.1998 -5.6403 2.9328 -10.5854 -30.8940 0.0000 0.0000 0.0000 17.5083 14.4851 -18.5257 -0.2124 -2.9671 8.1873 -1.0926 3.6138 -18.8825 -0.9932 6.3426 -17.7817 -7.6294 -2.1754 -29.8412 -0.1432 -0.9031 -1.1078 3.5586 -1.1786 14.5470 -0.6815 -1.5651 -5.9137 3.6749 -2.2119 4.7177 1.2100 -0.9747 2.5834 0.0000 -0.0000 0.0000 -85.6584 0.5928 18.7713 10.7102 -17.8427 -1.6861 -0.0000 -0.0000 4.4652 22.4806 -11.5019 -4.7171 -7.1250 0.0000 -0.0000 -3.2648 17.5726 2.1303 0.0000 -0.0000 0.0000 92.4977 -4.3140 6.2481 -15.8795 25.3570 -3.5942 0.0000 -0.0000 -2.5529 -14.8252 -57.9235 12.6408 7.1250 -0.0000 -0.0000 87.4262 -77.3021 -74.3540
16.1082 16.3421 21.1204 177.8560 -0.2347 -155.2290 0.0000 0.0000 0.0000 -21.0569 -15.3887 -18.8434 0.2064 2.9251 8.0703 0.0729 -5.0678 -5.5783 2.9661 -10.6400 -31.0751 0.0000 0.0000 0.0000 17.5366 14.7235 -18.4093 -0.2116 -2.9618 8.1724 -1.0980 3.3587 -18.9710 -1.0685 6.5715 -18.4519 -7.6798 -2.2011 -29.8717 -0.0850 -0.9206 -1.0859 3.6421 -1.1919 14.5904 -0.6648 -1.5444 -5.9278 3.5520 -2.1822 4.7653 1.1685 -0.9640 2.5986 -0.0000 0.0000 0.0000 -85.7396 0.5901 18.6401 10.6532 -17.7547 -1.6686 -0.0000 -0.0000 4.4714 22.6097 -11.8411 -4.8845 -7.1250 0.0000 -0.0000 -3.1884 17.1964 2.1065 -0.0000 0.0000 0.0000 92.4479 -4.1869 6.1369 -15.7740 25.2132 -3.5491 0.0000 -0.0000 -2.6026 -15.0160 -57.9869 12.8142 7.1250 -0.0000 -0.0000 87.7678 -77.3616 -74.7653
16.1045 16.3427 21.1232 177.8190 -0.2993 -155.1890 0.0000 0.0000 0.0000 -21.1087 -15.4424 -18.8892 0.2106 2.9546 8.1524 0.0726 -5.1041 -5.5878 3.0199 -10.7272 -31.3654 0.0000 0.0000 0.0000 17.5056 14.5877 -18.4994 -0.2125 -2.9680 8.1898 -1.0984 3.4128 -18.9658 -1.1315 6.7561 -18.9947 -7.6463 -2.2057 -29.8841 -0.1010 -0.9431 -1.1239 3.5966 -1.1997 14.5534 -0.5911 -1.5304 -5.8675 3.4634 -2.1659 4.8267 1.1279 -0.9573 2.6047 0.0000 0.0000 0.0000 -85.7640 0.6572 18.5005 10.6028 -17.6769 -1.6533 -0.0000 -0.0000 4.6465 22.5846 -11.8571 -4.8849 -7.1250 0.0000 -0.0000 -3.2067 17.1818 2.1196 0.0000 0.0000 0.0000 92.4511 -4.1227 5.9808 -15.6622 25.0605 -3.5017 0.0000 -0.0000 -2.6877 -15.2287 -58.0857 13.0116 7.1250 -0.0000 -0.0000 88.2796 -77.4237 -75.3528
16.1092 16.3432 21.1209 177.8750 -0.2837 -155.1980 0.0000 0.0000 0.0000 -21.0179 -15.3686 -18.9070 0.2137 2.9759 8.2117 0.0756 -5.1380 -5.6721 2.9344 -10.5881 -30.9029 0.0000 0.0000 0.0000 17.5681 14.7172 -18.4510 -0.2130 -2.9710 8.1981 -1.0984 3.3304 -18.9787 -1.1246 6.7361 -18.9358 -7.6204 -2.1893 -29.9108 -0.0890 -0.9214 -1.0825 3.6045 -1.1891 14.6121 -0.5426 -1.5558 -6.0010 3.4528 -2.2039 4.8147 1.1139 -0.9746 2.6254 -0.0000 0.0000 0.0000 -85.7610 0.6103 18.3891 10.5747 -17.6334 -1.6448 -0.0000 -0.0000 4.8266 22.5204 -11.6636 -4.7915 -7.1250 0.0000 -0.0000 -3.2435 17.3954 2.1289 -0.0000 0.0000 0.0000 92.4620 -3.9988 5.9526 -15.6363 25.0250 -3.4907 0.0000 -0.0000 -2.6320 -15.5477 -58.3662 13.3268 7.1250 -0.0000 -0.0000 89.6578 -77.4953 -76.8361
